# xmcd
#
# Track frame offsets:
#	150
#	78263
#	104297
#	132602
#	172388
#
# Disc length: 2736 seconds
#
# Revision: 1
# Processed by: cddbd v1.5.2PL0 Copyright (c) Steve Scherf et al.
# Submitted via: audiograbber 1.83.01
#
DISCID=420aae05
DTITLE=Grateful Dead - 72-04-29A Musikhalle, Hamburg, Germany
DYEAR=1900
DGENRE=
TTITLE0=Good Lovin'
TTITLE1=Casey Jones
TTITLE2=Greatest Story Ever Told
TTITLE3=He's Gone
TTITLE4=Next Time You See Me
EXTD=
EXTT0=
EXTT1=
EXTT2=
EXTT3=
EXTT4=
PLAYORDER=
